<svg width="204" height="58" viewBox="0 0 204 58" fill="none" xmlns="http://www.w3.org/2000/svg">
<rect width="204" height="57.936" rx="20" fill="#C79B5E"/>
<path d="M173.46 39.5674L173.925 40.0335C174.201 41.9084 174.251 44.1162 173.545 45.8893L168.269 45.9241C168.207 45.6456 168.172 45.5491 168.262 45.2733C168.661 44.051 172.395 40.6815 173.46 39.5674Z" fill="#171E1F"/>
<path d="M39.2548 11.4872L45.9312 11.4563C41.0387 16.9291 35.8907 22.1881 30.8875 27.5492C29.7979 28.7754 28.5796 29.8822 27.4054 31.0146C27.5791 28.4932 27.4711 25.8983 27.475 23.368C29.8052 20.8121 36.6376 12.4425 39.2548 11.4872Z" fill="#171E1F"/>
<path d="M173.127 24.0233C173.518 24.0366 173.695 24.1786 173.983 24.4339C174.251 26.5626 174.308 29.1494 173.66 31.2007C173.651 31.2569 173.643 31.2976 173.621 31.3498C172.917 32.9967 161.227 45.2156 159.604 45.9192C157.721 46.1221 155.656 45.924 153.753 45.9051L153.457 45.6309C153.459 45.5201 153.435 45.1548 153.471 45.0688C153.882 44.096 170.864 27.6012 173.127 24.0233Z" fill="#171E1F"/>
<path d="M54.051 11.4993C56.2132 11.5049 58.3751 11.4853 60.5368 11.4407C50.8586 22.0973 40.8661 32.4434 31.0922 43.0026L27.4924 46.7539L27.4846 39.0251C29.7904 36.2306 51.9869 12.1163 54.051 11.4993Z" fill="#171E1F"/>
<path d="M170.584 11.5897C172.01 11.3929 172.781 11.2746 173.985 12.1906C174.397 13.1644 174.291 13.7771 173.993 14.7577C173.435 16.5889 147.57 44.4796 145.052 45.857C143.841 46.1243 142.266 45.9317 141.012 45.938C140.35 45.95 139.746 45.8841 139.094 45.7735L138.764 45.2631C145.845 37.8311 152.876 30.3462 159.858 22.8084C163.366 19.0545 166.78 14.9807 170.584 11.5897Z" fill="#171E1F"/>
<path d="M97.2588 11.591C99.4668 11.5611 101.674 11.505 103.881 11.4229C103.88 11.4353 103.879 11.4476 103.877 11.4599C103.821 11.9726 103.518 12.4367 103.207 12.8157C98.2582 18.8386 92.3676 24.4264 87.0528 30.1216C82.2785 35.2376 77.2649 41.5193 71.9989 45.9561C69.5972 46.0171 67.1698 45.906 64.7661 45.8756C72.6524 38.1932 80.0426 29.8023 87.5782 21.72C90.7318 18.3375 93.8058 14.5985 97.2588 11.591Z" fill="#171E1F"/>
<path d="M140.996 11.5902C143.158 11.2671 145.583 11.4831 147.776 11.4747C147.726 11.7919 147.641 12.1329 147.484 12.411C146.192 14.7104 140.633 19.8607 138.517 22.1228C131.474 29.6465 124.605 37.6169 117.266 44.7853C116.771 45.2684 116.324 45.6087 115.664 45.7873C113.299 46.3304 110.373 45.9235 107.946 45.8658C111.957 43.9334 136.004 17.0271 140.996 11.5902Z" fill="#171E1F"/>
<path d="M68.234 11.4481C70.3435 11.5441 72.4249 11.5716 74.5353 11.4885C74.5138 11.6442 74.4801 11.793 74.4294 11.9408C74.0257 13.1185 44.6393 44.8645 42.5358 45.9177C40.2105 46.0172 37.8499 45.8956 35.5219 45.8629C43.2411 38.2334 50.54 30.0462 57.9555 22.0747C61.1718 18.6174 64.5201 14.2563 68.234 11.4481Z" fill="#171E1F"/>
<path d="M126.554 11.59C128.73 11.3721 130.993 11.6173 133.203 11.4359C133.142 11.7522 133.045 12.0851 132.879 12.3568C131.269 14.9723 126.327 19.5016 123.989 22.0085C116.975 29.5291 110.088 37.676 102.676 44.7139C102.125 45.2376 101.592 45.6183 100.861 45.7874C98.645 46.3357 95.7973 45.9349 93.5093 45.8886C97.3121 43.7257 100.983 38.7606 104.034 35.4932C111.448 27.556 118.704 19.0014 126.554 11.59Z" fill="#171E1F"/>
<path d="M111.63 11.5896C113.918 11.4341 116.217 11.4464 118.508 11.4254C118.483 11.8177 118.374 12.1883 118.156 12.5063C115.678 16.1188 109.663 21.7058 106.37 25.2216C100.227 31.7785 94.2387 39.006 87.7216 45.1051C87.3032 45.4968 86.9073 45.7063 86.3525 45.7946C83.9922 46.3051 81.1188 45.9424 78.6995 45.9095C82.2237 44.114 107.452 16.5569 111.63 11.5896Z" fill="#171E1F"/>
<path d="M156.052 11.5912L162.479 11.4331C162.497 11.7619 162.385 12.0074 162.224 12.278C161.327 13.7838 132.31 44.9136 131.017 45.6398C130.747 45.7911 130.177 45.8402 129.862 45.9151C127.532 46.1253 125.058 45.9207 122.714 45.8958C126.546 44.0382 145.011 22.9444 149.166 18.4686C151.193 16.2845 153.573 13.1216 156.052 11.5912Z" fill="#171E1F"/>
<path d="M82.6578 11.5868C84.802 11.3364 87.0855 11.4671 89.2476 11.4383C89.2469 11.4769 89.246 11.5156 89.2434 11.5542C89.1789 12.5362 60.5509 43.2524 57.4719 45.9436C54.9976 46.0314 52.4884 45.9048 50.0114 45.8721C58.4011 38.2473 66.0053 29.1142 73.7823 20.7655C76.6373 17.7006 79.4673 14.2282 82.6578 11.5868Z" fill="#171E1F"/>
</svg>
