<svg width="32" height="32" viewBox="0 0 32 32" fill="none" xmlns="http://www.w3.org/2000/svg">
<path d="M6.66666 10C6.66666 9.46957 6.87738 8.96086 7.25245 8.58579C7.62752 8.21071 8.13623 8 8.66666 8H23.3333C23.8638 8 24.3725 8.21071 24.7475 8.58579C25.1226 8.96086 25.3333 9.46957 25.3333 10V12H6.66666V10Z" fill="white"/>
<path fill-rule="evenodd" clip-rule="evenodd" d="M21.3333 6C21.5101 6 21.6797 6.07024 21.8047 6.19526C21.9298 6.32029 22 6.48986 22 6.66667V9.33333C22 9.51014 21.9298 9.67971 21.8047 9.80474C21.6797 9.92976 21.5101 10 21.3333 10C21.1565 10 20.9869 9.92976 20.8619 9.80474C20.7369 9.67971 20.6667 9.51014 20.6667 9.33333V6.66667C20.6667 6.48986 20.7369 6.32029 20.8619 6.19526C20.9869 6.07024 21.1565 6 21.3333 6ZM10.6667 6C10.8435 6 11.013 6.07024 11.1381 6.19526C11.2631 6.32029 11.3333 6.48986 11.3333 6.66667V9.33333C11.3333 9.51014 11.2631 9.67971 11.1381 9.80474C11.013 9.92976 10.8435 10 10.6667 10C10.4899 10 10.3203 9.92976 10.1953 9.80474C10.0702 9.67971 10 9.51014 10 9.33333V6.66667C10 6.48986 10.0702 6.32029 10.1953 6.19526C10.3203 6.07024 10.4899 6 10.6667 6ZM6.66666 13.3333H25.3333V22C25.3333 22.5304 25.1226 23.0391 24.7475 23.4142C24.3725 23.7893 23.8638 24 23.3333 24H8.66666C8.13623 24 7.62752 23.7893 7.25245 23.4142C6.87738 23.0391 6.66666 22.5304 6.66666 22V13.3333ZM20.6667 16C20.6667 15.8232 20.7369 15.6536 20.8619 15.5286C20.9869 15.4036 21.1565 15.3333 21.3333 15.3333H22.6667C22.8435 15.3333 23.013 15.4036 23.1381 15.5286C23.2631 15.6536 23.3333 15.8232 23.3333 16C23.3333 16.1768 23.2631 16.3464 23.1381 16.4714C23.013 16.5964 22.8435 16.6667 22.6667 16.6667H21.3333C21.1565 16.6667 20.9869 16.5964 20.8619 16.4714C20.7369 16.3464 20.6667 16.1768 20.6667 16ZM17.3333 15.3333C17.1565 15.3333 16.9869 15.4036 16.8619 15.5286C16.7369 15.6536 16.6667 15.8232 16.6667 16C16.6667 16.1768 16.7369 16.3464 16.8619 16.4714C16.9869 16.5964 17.1565 16.6667 17.3333 16.6667H18.6667C18.8435 16.6667 19.013 16.5964 19.1381 16.4714C19.2631 16.3464 19.3333 16.1768 19.3333 16C19.3333 15.8232 19.2631 15.6536 19.1381 15.5286C19.013 15.4036 18.8435 15.3333 18.6667 15.3333H17.3333ZM12.6667 16C12.6667 15.8232 12.7369 15.6536 12.8619 15.5286C12.9869 15.4036 13.1565 15.3333 13.3333 15.3333H14.6667C14.8435 15.3333 15.013 15.4036 15.1381 15.5286C15.2631 15.6536 15.3333 15.8232 15.3333 16C15.3333 16.1768 15.2631 16.3464 15.1381 16.4714C15.013 16.5964 14.8435 16.6667 14.6667 16.6667H13.3333C13.1565 16.6667 12.9869 16.5964 12.8619 16.4714C12.7369 16.3464 12.6667 16.1768 12.6667 16ZM9.33333 18C9.15652 18 8.98695 18.0702 8.86193 18.1953C8.7369 18.3203 8.66666 18.4899 8.66666 18.6667C8.66666 18.8435 8.7369 19.013 8.86193 19.1381C8.98695 19.2631 9.15652 19.3333 9.33333 19.3333H10.6667C10.8435 19.3333 11.013 19.2631 11.1381 19.1381C11.2631 19.013 11.3333 18.8435 11.3333 18.6667C11.3333 18.4899 11.2631 18.3203 11.1381 18.1953C11.013 18.0702 10.8435 18 10.6667 18H9.33333ZM20.6667 18.6667C20.6667 18.4899 20.7369 18.3203 20.8619 18.1953C20.9869 18.0702 21.1565 18 21.3333 18H22.6667C22.8435 18 23.013 18.0702 23.1381 18.1953C23.2631 18.3203 23.3333 18.4899 23.3333 18.6667C23.3333 18.8435 23.2631 19.013 23.1381 19.1381C23.013 19.2631 22.8435 19.3333 22.6667 19.3333H21.3333C21.1565 19.3333 20.9869 19.2631 20.8619 19.1381C20.7369 19.013 20.6667 18.8435 20.6667 18.6667ZM17.3333 18C17.1565 18 16.9869 18.0702 16.8619 18.1953C16.7369 18.3203 16.6667 18.4899 16.6667 18.6667C16.6667 18.8435 16.7369 19.013 16.8619 19.1381C16.9869 19.2631 17.1565 19.3333 17.3333 19.3333H18.6667C18.8435 19.3333 19.013 19.2631 19.1381 19.1381C19.2631 19.013 19.3333 18.8435 19.3333 18.6667C19.3333 18.4899 19.2631 18.3203 19.1381 18.1953C19.013 18.0702 18.8435 18 18.6667 18H17.3333ZM12.6667 18.6667C12.6667 18.4899 12.7369 18.3203 12.8619 18.1953C12.9869 18.0702 13.1565 18 13.3333 18H14.6667C14.8435 18 15.013 18.0702 15.1381 18.1953C15.2631 18.3203 15.3333 18.4899 15.3333 18.6667C15.3333 18.8435 15.2631 19.013 15.1381 19.1381C15.013 19.2631 14.8435 19.3333 14.6667 19.3333H13.3333C13.1565 19.3333 12.9869 19.2631 12.8619 19.1381C12.7369 19.013 12.6667 18.8435 12.6667 18.6667ZM9.33333 20.6667C9.15652 20.6667 8.98695 20.7369 8.86193 20.8619C8.7369 20.987 8.66666 21.1565 8.66666 21.3333C8.66666 21.5101 8.7369 21.6797 8.86193 21.8047C8.98695 21.9298 9.15652 22 9.33333 22H10.6667C10.8435 22 11.013 21.9298 11.1381 21.8047C11.2631 21.6797 11.3333 21.5101 11.3333 21.3333C11.3333 21.1565 11.2631 20.987 11.1381 20.8619C11.013 20.7369 10.8435 20.6667 10.6667 20.6667H9.33333ZM16.6667 21.3333C16.6667 21.1565 16.7369 20.987 16.8619 20.8619C16.9869 20.7369 17.1565 20.6667 17.3333 20.6667H18.6667C18.8435 20.6667 19.013 20.7369 19.1381 20.8619C19.2631 20.987 19.3333 21.1565 19.3333 21.3333C19.3333 21.5101 19.2631 21.6797 19.1381 21.8047C19.013 21.9298 18.8435 22 18.6667 22H17.3333C17.1565 22 16.9869 21.9298 16.8619 21.8047C16.7369 21.6797 16.6667 21.5101 16.6667 21.3333ZM13.3333 20.6667C13.1565 20.6667 12.9869 20.7369 12.8619 20.8619C12.7369 20.987 12.6667 21.1565 12.6667 21.3333C12.6667 21.5101 12.7369 21.6797 12.8619 21.8047C12.9869 21.9298 13.1565 22 13.3333 22H14.6667C14.8435 22 15.013 21.9298 15.1381 21.8047C15.2631 21.6797 15.3333 21.5101 15.3333 21.3333C15.3333 21.1565 15.2631 20.987 15.1381 20.8619C15.013 20.7369 14.8435 20.6667 14.6667 20.6667H13.3333Z" fill="white"/>
</svg>
