<svg width="24" height="25" viewBox="0 0 24 25" fill="none" xmlns="http://www.w3.org/2000/svg">
<path fill-rule="evenodd" clip-rule="evenodd" d="M20 1.20273C21.6569 1.20273 23 2.54588 23 4.20273V20.2027C23 21.8596 21.6569 23.2027 20 23.2027H4C2.34315 23.2027 1 21.8596 1 20.2027V4.20273C1 2.54588 2.34315 1.20273 4 1.20273H20ZM20 3.20273C20.5523 3.20273 21 3.65045 21 4.20273V20.2027C21 20.755 20.5523 21.2027 20 21.2027H15V14.2026H17.0762C17.5066 14.2026 17.8887 13.9272 18.0249 13.5188L18.4679 12.1898C18.6298 11.7041 18.2683 11.2026 17.7564 11.2026H15V9.20265C15 8.70265 15.5 8.20265 16 8.20265H18C18.5523 8.20265 19 7.75493 19 7.20265V6.51666C19 6.19364 18.7937 5.90403 18.4813 5.8216C17.1705 5.47568 16 5.47568 16 5.47568C13.5 5.47568 12 7.20265 12 8.70265V11.2026H10C9.44772 11.2026 9 11.6503 9 12.2026V13.2026C9 13.7549 9.44771 14.2026 10 14.2026H12V21.2027H4C3.44772 21.2027 3 20.755 3 20.2027V4.20273C3 3.65045 3.44772 3.20273 4 3.20273H20Z" fill="white"/>
</svg>
