<svg width="204" height="58" viewBox="0 0 204 58" fill="none" xmlns="http://www.w3.org/2000/svg">
<rect width="204" height="57.936" rx="20" fill="#FFAE52"/>
<path d="M173.46 39.5872L173.925 40.0542C174.201 41.9326 174.251 44.1446 173.545 45.921L168.269 45.9559C168.207 45.6768 168.172 45.5802 168.262 45.3039C168.661 44.0793 172.395 40.7034 173.46 39.5872Z" fill="#171E1F"/>
<path d="M39.2548 11.4541L45.9312 11.4231C41.0387 16.9062 35.8907 22.1751 30.8875 27.5463C29.7979 28.7748 28.5796 29.8838 27.4054 31.0183C27.5791 28.4922 27.4711 25.8923 27.475 23.3572C29.8052 20.7966 36.6376 12.4112 39.2548 11.4541Z" fill="#171E1F"/>
<path d="M173.127 24.0137C173.518 24.027 173.695 24.1693 173.983 24.4251C174.251 26.5578 174.308 29.1494 173.66 31.2046C173.651 31.261 173.643 31.3016 173.621 31.354C172.917 33.004 161.227 45.246 159.604 45.9508C157.721 46.1542 155.656 45.9557 153.753 45.9367L153.457 45.6621C153.459 45.5511 153.435 45.1851 153.471 45.0988C153.882 44.1242 170.864 27.5983 173.127 24.0137Z" fill="#171E1F"/>
<path d="M54.051 11.4659C56.2132 11.4715 58.3751 11.452 60.5368 11.4072C50.8586 22.0839 40.8661 32.4496 31.0922 43.0287L27.4924 46.7871L27.4846 39.0437C29.7904 36.2439 51.9869 12.0841 54.051 11.4659Z" fill="#171E1F"/>
<path d="M170.584 11.5567C172.01 11.3594 172.781 11.2409 173.985 12.1587C174.397 13.1343 174.291 13.7482 173.993 14.7306C173.435 16.5652 147.57 44.5086 145.052 45.8886C143.841 46.1563 142.266 45.9634 141.012 45.9697C140.35 45.9818 139.746 45.9158 139.094 45.8049L138.764 45.2936C145.845 37.8475 152.876 30.3485 159.858 22.7965C163.366 19.0355 166.78 14.954 170.584 11.5567Z" fill="#171E1F"/>
<path d="M97.2588 11.5581C99.4668 11.5281 101.674 11.472 103.881 11.3896C103.88 11.4021 103.879 11.4144 103.877 11.4267C103.821 11.9404 103.518 12.4054 103.207 12.7851C98.2582 18.8194 92.3676 24.4178 87.0528 30.1237C82.2785 35.2494 77.2649 41.5429 71.9989 45.9881C69.5972 46.0491 67.1698 45.9378 64.7661 45.9074C72.6524 38.2105 80.0426 29.8038 87.5782 21.7062C90.7318 18.3173 93.8058 14.5713 97.2588 11.5581Z" fill="#171E1F"/>
<path d="M140.996 11.5572C143.158 11.2335 145.583 11.4499 147.776 11.4415C147.726 11.7593 147.641 12.1009 147.484 12.3796C146.192 14.6833 140.633 19.8433 138.517 22.1097C131.474 29.6476 124.605 37.633 117.266 44.815C116.771 45.2989 116.324 45.6399 115.664 45.8188C113.299 46.363 110.373 45.9553 107.946 45.8975C111.957 43.9615 136.004 17.0044 140.996 11.5572Z" fill="#171E1F"/>
<path d="M68.234 11.4148C70.3435 11.511 72.4249 11.5385 74.5353 11.4552C74.5138 11.6112 74.4801 11.7603 74.4294 11.9084C74.0257 13.0883 44.6393 44.8942 42.5358 45.9494C40.2105 46.0491 37.8499 45.9273 35.5219 45.8945C43.2411 38.2506 50.54 30.0479 57.9555 22.0615C61.1718 18.5976 64.5201 14.2282 68.234 11.4148Z" fill="#171E1F"/>
<path d="M126.554 11.5569C128.73 11.3386 130.993 11.5843 133.203 11.4026C133.142 11.7194 133.045 12.053 132.879 12.3252C131.269 14.9457 126.327 19.4835 123.989 21.9951C116.975 29.5299 110.088 37.6922 102.676 44.7433C102.125 45.2681 101.592 45.6494 100.861 45.8189C98.645 46.3683 95.7973 45.9667 93.5093 45.9203C97.3121 43.7533 100.983 38.7788 104.034 35.5052C111.448 27.5531 118.704 18.9824 126.554 11.5569Z" fill="#171E1F"/>
<path d="M111.63 11.5565C113.918 11.4008 116.217 11.4131 118.508 11.3921C118.483 11.7851 118.374 12.1565 118.156 12.475C115.678 16.0943 109.663 21.6919 106.37 25.2143C100.227 31.7836 94.2387 39.0247 87.7216 45.1354C87.3032 45.5278 86.9073 45.7376 86.3525 45.8261C83.9922 46.3376 81.1188 45.9742 78.6995 45.9413C82.2237 44.1423 107.452 16.5333 111.63 11.5565Z" fill="#171E1F"/>
<path d="M156.052 11.5583L162.479 11.3999C162.497 11.7293 162.385 11.9753 162.224 12.2464C161.327 13.755 132.31 44.9436 131.017 45.6711C130.747 45.8227 130.177 45.872 129.862 45.947C127.532 46.1575 125.058 45.9525 122.714 45.9276C126.546 44.0665 145.011 22.9329 149.166 18.4487C151.193 16.2605 153.573 13.0916 156.052 11.5583Z" fill="#171E1F"/>
<path d="M82.6578 11.5537C84.802 11.3029 87.0855 11.4339 89.2476 11.4049C89.2469 11.4437 89.246 11.4825 89.2434 11.5211C89.1789 12.505 60.5509 43.2791 57.4719 45.9754C54.9976 46.0633 52.4884 45.9365 50.0114 45.9037C58.4011 38.2646 66.0053 29.1142 73.7823 20.7497C76.6373 17.6791 79.4673 14.2001 82.6578 11.5537Z" fill="#171E1F"/>
</svg>
