<svg width="24" height="25" viewBox="0 0 24 25" fill="none" xmlns="http://www.w3.org/2000/svg">
<path fill-rule="evenodd" clip-rule="evenodd" d="M12 18.2027C15.3137 18.2027 18 15.5164 18 12.2027C18 8.88902 15.3137 6.20273 12 6.20273C8.68629 6.20273 6 8.88902 6 12.2027C6 15.5164 8.68629 18.2027 12 18.2027ZM12 16.2027C14.2091 16.2027 16 14.4118 16 12.2027C16 9.99359 14.2091 8.20273 12 8.20273C9.79086 8.20273 8 9.99359 8 12.2027C8 14.4118 9.79086 16.2027 12 16.2027Z" fill="white"/>
<path d="M18 5.20273C17.4477 5.20273 17 5.65045 17 6.20273C17 6.75501 17.4477 7.20273 18 7.20273C18.5523 7.20273 19 6.75501 19 6.20273C19 5.65045 18.5523 5.20273 18 5.20273Z" fill="white"/>
<path fill-rule="evenodd" clip-rule="evenodd" d="M1.65396 4.47879C1 5.76226 1 7.44242 1 10.8027V13.6027C1 16.963 1 18.6432 1.65396 19.9266C2.2292 21.0556 3.14708 21.9735 4.27606 22.5487C5.55953 23.2027 7.23969 23.2027 10.6 23.2027H13.4C16.7603 23.2027 18.4405 23.2027 19.7239 22.5487C20.8529 21.9735 21.7708 21.0556 22.346 19.9266C23 18.6432 23 16.963 23 13.6027V10.8027C23 7.44242 23 5.76226 22.346 4.47879C21.7708 3.34981 20.8529 2.43193 19.7239 1.85669C18.4405 1.20273 16.7603 1.20273 13.4 1.20273H10.6C7.23969 1.20273 5.55953 1.20273 4.27606 1.85669C3.14708 2.43193 2.2292 3.34981 1.65396 4.47879ZM13.4 3.20273H10.6C8.88684 3.20273 7.72225 3.20429 6.82208 3.27783C5.94524 3.34947 5.49684 3.47932 5.18404 3.6387C4.43139 4.0222 3.81947 4.63412 3.43597 5.38677C3.27659 5.69957 3.14674 6.14797 3.0751 7.02481C3.00156 7.92498 3 9.08957 3 10.8027V13.6027C3 15.3159 3.00156 16.4804 3.0751 17.3806C3.14674 18.2575 3.27659 18.7059 3.43597 19.0187C3.81947 19.7713 4.43139 20.3832 5.18404 20.7667C5.49684 20.9261 5.94524 21.056 6.82208 21.1276C7.72225 21.2011 8.88684 21.2027 10.6 21.2027H13.4C15.1132 21.2027 16.2777 21.2011 17.1779 21.1276C18.0548 21.056 18.5032 20.9261 18.816 20.7667C19.5686 20.3832 20.1805 19.7713 20.564 19.0187C20.7234 18.7059 20.8533 18.2575 20.9249 17.3806C20.9984 16.4804 21 15.3159 21 13.6027V10.8027C21 9.08957 20.9984 7.92498 20.9249 7.02481C20.8533 6.14797 20.7234 5.69957 20.564 5.38677C20.1805 4.63412 19.5686 4.0222 18.816 3.6387C18.5032 3.47932 18.0548 3.34947 17.1779 3.27783C16.2777 3.20429 15.1132 3.20273 13.4 3.20273Z" fill="white"/>
</svg>
