<svg width="24" height="25" viewBox="0 0 24 25" fill="none" xmlns="http://www.w3.org/2000/svg">
<path d="M6.5 8.20273C7.32843 8.20273 8 7.53116 8 6.70273C8 5.8743 7.32843 5.20273 6.5 5.20273C5.67157 5.20273 5 5.8743 5 6.70273C5 7.53116 5.67157 8.20273 6.5 8.20273Z" fill="white"/>
<path d="M5 10.2028C5 9.65048 5.44772 9.20276 6 9.20276H7C7.55228 9.20276 8 9.65047 8 10.2028V18.2028C8 18.7551 7.55228 19.2028 7 19.2028H6C5.44772 19.2028 5 18.7551 5 18.2028V10.2028Z" fill="white"/>
<path d="M11 19.2028H12C12.5523 19.2028 13 18.7551 13 18.2028V13.7028C13 12.2028 16 11.2028 16 13.2028V18.2032C16 18.7555 16.4477 19.2028 17 19.2028H18C18.5523 19.2028 19 18.7551 19 18.2028V12.2028C19 10.2028 17.5 9.20276 15.5 9.20276C13.5 9.20276 13 10.7028 13 10.7028V10.2028C13 9.65047 12.5523 9.20276 12 9.20276H11C10.4477 9.20276 10 9.65048 10 10.2028V18.2028C10 18.7551 10.4477 19.2028 11 19.2028Z" fill="white"/>
<path fill-rule="evenodd" clip-rule="evenodd" d="M20 1.20273C21.6569 1.20273 23 2.54588 23 4.20273V20.2027C23 21.8596 21.6569 23.2027 20 23.2027H4C2.34315 23.2027 1 21.8596 1 20.2027V4.20273C1 2.54588 2.34315 1.20273 4 1.20273H20ZM20 3.20273C20.5523 3.20273 21 3.65045 21 4.20273V20.2027C21 20.755 20.5523 21.2027 20 21.2027H4C3.44772 21.2027 3 20.755 3 20.2027V4.20273C3 3.65045 3.44772 3.20273 4 3.20273H20Z" fill="white"/>
</svg>
