<svg width="32" height="32" viewBox="0 0 32 32" fill="none" xmlns="http://www.w3.org/2000/svg">
<path fill-rule="evenodd" clip-rule="evenodd" d="M16 11.1875C14.8608 11.1875 13.9375 12.1108 13.9375 13.25C13.9375 14.3892 14.8608 15.3125 16 15.3125C17.1392 15.3125 18.0625 14.3892 18.0625 13.25C18.0625 12.1108 17.1392 11.1875 16 11.1875ZM16 16.6875C14.1018 16.6875 12.5625 15.1489 12.5625 13.25C12.5625 11.3511 14.1018 9.8125 16 9.8125C17.8982 9.8125 19.4375 11.3511 19.4375 13.25C19.4375 15.1489 17.8982 16.6875 16 16.6875ZM16 5C11.4439 5 7.75 8.69394 7.75 13.25C7.75 16.6999 14.6284 27.0075 16 27C17.3502 27.0075 24.25 16.6531 24.25 13.25C24.25 8.69394 20.5561 5 16 5Z" fill="white"/>
</svg>
