<svg width="204" height="58" viewBox="0 0 204 58" fill="none" xmlns="http://www.w3.org/2000/svg">
<rect width="204" height="57.936" rx="20" fill="#54E5E5"/>
<path d="M173.514 38.6663L173.979 39.0927C174.255 40.8077 174.305 42.8273 173.599 44.4491L168.323 44.481C168.261 44.2262 168.226 44.138 168.316 43.8857C168.715 42.7676 172.449 39.6854 173.514 38.6663Z" fill="#171E1F"/>
<path d="M39.3089 12.9802L45.9853 12.9519C41.0928 17.958 35.9448 22.7687 30.9416 27.6727C29.8519 28.7943 28.6336 29.8068 27.4595 30.8426C27.6332 28.5363 27.5252 26.1625 27.529 23.848C29.8593 21.51 36.6917 13.854 39.3089 12.9802Z" fill="#171E1F"/>
<path d="M173.181 24.4475C173.572 24.4596 173.749 24.5896 174.037 24.8231C174.305 26.7703 174.362 29.1366 173.714 31.013C173.705 31.0644 173.697 31.1016 173.675 31.1493C172.971 32.6558 161.281 43.833 159.658 44.4765C157.775 44.6621 155.71 44.4809 153.807 44.4636L153.511 44.2129C153.513 44.1115 153.489 43.7773 153.525 43.6986C153.937 42.8087 170.919 27.7203 173.181 24.4475Z" fill="#171E1F"/>
<path d="M54.1051 12.9911C56.2672 12.9962 58.4291 12.9784 60.5908 12.9375C50.9126 22.6855 40.9201 32.1495 31.1463 41.8085L27.5465 45.2399L27.5386 38.17C29.8445 35.6138 52.041 13.5555 54.1051 12.9911Z" fill="#171E1F"/>
<path d="M170.638 13.0739C172.064 12.8938 172.835 12.7857 174.039 13.6236C174.451 14.5143 174.345 15.0748 174.047 15.9718C173.489 17.6468 147.624 43.1596 145.106 44.4196C143.896 44.664 142.32 44.4878 141.066 44.4937C140.404 44.5047 139.8 44.4444 139.148 44.3431L138.818 43.8763C145.899 37.0779 152.93 30.2312 159.912 23.3361C163.42 19.9023 166.834 16.1758 170.638 13.0739Z" fill="#171E1F"/>
<path d="M97.3129 13.0752C99.5209 13.0478 101.728 12.9965 103.935 12.9214C103.934 12.9328 103.933 12.944 103.932 12.9553C103.875 13.4243 103.572 13.8488 103.261 14.1954C98.3123 19.7048 92.4217 24.8163 87.1069 30.0259C82.3325 34.7057 77.319 40.4518 72.053 44.5103C69.6512 44.5661 67.2239 44.4645 64.8202 44.4366C72.7065 37.4093 80.0966 29.7338 87.6322 22.3406C90.7858 19.2465 93.8598 15.8263 97.3129 13.0752Z" fill="#171E1F"/>
<path d="M141.05 13.0743C143.212 12.7789 145.637 12.9764 147.83 12.9687C147.78 13.2589 147.695 13.5708 147.539 13.8252C146.246 15.9286 140.687 20.6397 138.571 22.709C131.528 29.5912 124.659 36.882 117.32 43.4393C116.825 43.8811 116.378 44.1924 115.718 44.3558C113.353 44.8526 110.427 44.4804 108 44.4276C112.011 42.66 136.058 18.0478 141.05 13.0743Z" fill="#171E1F"/>
<path d="M68.288 12.9443C70.3976 13.0322 72.479 13.0573 74.5893 12.9812C74.5679 13.1237 74.5342 13.2598 74.4835 13.395C74.0797 14.4723 44.6933 43.5116 42.5898 44.475C40.2646 44.566 37.904 44.4548 35.5759 44.4248C43.2952 37.4459 50.5941 29.9567 58.0095 22.6649C61.2259 19.5023 64.5741 15.5131 68.288 12.9443Z" fill="#171E1F"/>
<path d="M126.608 13.0743C128.784 12.875 131.047 13.0993 133.257 12.9333C133.196 13.2226 133.099 13.5272 132.933 13.7757C131.323 16.1682 126.381 20.3113 124.043 22.6045C117.029 29.4839 110.142 36.9362 102.73 43.374C102.179 43.8531 101.646 44.2013 100.915 44.356C98.6991 44.8576 95.8514 44.491 93.5633 44.4486C97.3662 42.4701 101.037 37.9283 104.088 34.9395C111.502 27.679 118.759 19.8538 126.608 13.0743Z" fill="#171E1F"/>
<path d="M111.684 13.0737C113.972 12.9315 116.271 12.9428 118.562 12.9236C118.538 13.2824 118.428 13.6215 118.21 13.9123C115.733 17.2168 109.718 22.3275 106.424 25.5435C100.281 31.5414 94.2928 38.1526 87.7757 43.7317C87.3572 44.09 86.9614 44.2816 86.4065 44.3624C84.0463 44.8294 81.1729 44.4976 78.7536 44.4675C82.2777 42.8251 107.506 17.6176 111.684 13.0737Z" fill="#171E1F"/>
<path d="M156.106 13.0752L162.533 12.9307C162.552 13.2315 162.439 13.456 162.278 13.7035C161.381 15.0809 132.364 43.5566 131.071 44.2208C130.801 44.3592 130.231 44.4042 129.916 44.4727C127.586 44.6649 125.112 44.4778 122.768 44.455C126.6 42.7558 145.065 23.4605 149.22 19.3663C151.247 17.3685 153.627 14.4752 156.106 13.0752Z" fill="#171E1F"/>
<path d="M82.7119 13.0713C84.856 12.8423 87.1395 12.9618 89.3016 12.9354C89.301 12.9708 89.3001 13.0062 89.2975 13.0415C89.233 13.9398 60.6049 42.037 57.5259 44.4988C55.0516 44.5791 52.5425 44.4633 50.0655 44.4334C58.4551 37.4587 66.0594 29.1043 73.8364 21.4674C76.6913 18.6638 79.5213 15.4875 82.7119 13.0713Z" fill="#171E1F"/>
</svg>
