<svg width="204" height="58" viewBox="0 0 204 58" fill="none" xmlns="http://www.w3.org/2000/svg">
<rect width="204" height="57.936" rx="20" fill="#8E8E8E"/>
<path d="M173.514 38.6479L173.979 39.0736C174.255 40.7853 174.305 42.8011 173.599 44.4199L168.323 44.4517C168.261 44.1974 168.226 44.1094 168.316 43.8576C168.715 42.7416 172.449 39.6652 173.514 38.6479Z" fill="#171E1F"/>
<path d="M39.3089 13.0103L45.9853 12.9821C41.0928 17.9788 35.9448 22.7803 30.9416 27.6751C29.8519 28.7947 28.6336 29.8052 27.4595 30.8391C27.6332 28.5371 27.5252 26.1678 27.529 23.8576C29.8593 21.5241 36.6917 13.8825 39.3089 13.0103Z" fill="#171E1F"/>
<path d="M173.181 24.4559C173.572 24.468 173.749 24.5977 174.037 24.8308C174.305 26.7743 174.362 29.1361 173.714 31.009C173.705 31.0604 173.697 31.0974 173.675 31.1451C172.971 32.6488 161.281 43.8049 159.658 44.4472C157.775 44.6325 155.71 44.4516 153.807 44.4343L153.511 44.1841C153.513 44.0829 153.489 43.7494 153.525 43.6708C153.937 42.7826 170.919 27.7226 173.181 24.4559Z" fill="#171E1F"/>
<path d="M54.1051 13.0213C56.2672 13.0264 58.4291 13.0086 60.5908 12.9678C50.9126 22.6974 40.9201 32.1436 31.1463 41.7844L27.5465 45.2093L27.5386 38.1528C29.8445 35.6014 52.041 13.5846 54.1051 13.0213Z" fill="#171E1F"/>
<path d="M170.638 13.104C172.064 12.9242 172.835 12.8162 174.039 13.6526C174.451 14.5416 174.345 15.1011 174.047 15.9963C173.489 17.6683 147.624 43.1329 145.106 44.3906C143.896 44.6346 142.32 44.4587 141.066 44.4645C140.404 44.4755 139.8 44.4153 139.148 44.3143L138.818 43.8483C145.899 37.0627 152.93 30.2289 159.912 23.3468C163.42 19.9194 166.834 16.1999 170.638 13.104Z" fill="#171E1F"/>
<path d="M97.3129 13.1051C99.5209 13.0777 101.728 13.0266 103.935 12.9515C103.934 12.9629 103.933 12.9741 103.932 12.9853C103.875 13.4535 103.572 13.8772 103.261 14.2232C98.3123 19.7222 92.4217 24.824 87.1069 30.0238C82.3325 34.6948 77.319 40.4301 72.053 44.481C69.6512 44.5366 67.2239 44.4352 64.8202 44.4075C72.7065 37.3933 80.0966 29.7323 87.6322 22.353C90.7858 19.2647 93.8598 15.851 97.3129 13.1051Z" fill="#171E1F"/>
<path d="M141.05 13.1043C143.212 12.8094 145.637 13.0066 147.83 12.9989C147.78 13.2885 147.695 13.5998 147.539 13.8537C146.246 15.9532 140.687 20.6555 138.571 22.7208C131.528 29.59 124.659 36.8672 117.32 43.4121C116.825 43.8531 116.378 44.1638 115.718 44.3269C113.353 44.8227 110.427 44.4512 108 44.3985C112.011 42.6342 136.058 18.0684 141.05 13.1043Z" fill="#171E1F"/>
<path d="M68.288 12.9746C70.3976 13.0623 72.479 13.0874 74.5893 13.0114C74.5679 13.1536 74.5342 13.2895 74.4835 13.4244C74.0797 14.4997 44.6933 43.4843 42.5898 44.4459C40.2646 44.5367 37.904 44.4257 35.5759 44.3958C43.2952 37.43 50.5941 29.9549 58.0095 22.6769C61.2259 19.5203 64.5741 15.5385 68.288 12.9746Z" fill="#171E1F"/>
<path d="M126.608 13.1042C128.784 12.9052 131.047 13.1291 133.257 12.9635C133.196 13.2522 133.099 13.5563 132.933 13.8043C131.323 16.1923 126.381 20.3276 124.043 22.6165C117.029 29.4829 110.142 36.9211 102.73 43.3468C102.179 43.825 101.646 44.1725 100.915 44.3269C98.6991 44.8276 95.8514 44.4617 93.5633 44.4194C97.3662 42.4446 101.037 37.9114 104.088 34.9282C111.502 27.6814 118.759 19.8709 126.608 13.1042Z" fill="#171E1F"/>
<path d="M111.684 13.1038C113.972 12.9619 116.271 12.9732 118.562 12.954C118.538 13.3121 118.428 13.6505 118.21 13.9408C115.733 17.2391 109.718 22.3401 106.424 25.5501C100.281 31.5367 94.2928 38.1355 87.7757 43.7041C87.3572 44.0617 86.9614 44.253 86.4065 44.3336C84.0463 44.7997 81.1729 44.4685 78.7536 44.4385C82.2777 42.7992 107.506 17.6391 111.684 13.1038Z" fill="#171E1F"/>
<path d="M156.106 13.1052L162.533 12.9609C162.552 13.2612 162.439 13.4853 162.278 13.7323C161.381 15.1072 132.364 43.5292 131.071 44.1922C130.801 44.3303 130.231 44.3752 129.916 44.4436C127.586 44.6355 125.112 44.4486 122.768 44.4259C126.6 42.7299 145.065 23.4709 149.22 19.3845C151.247 17.3904 153.627 14.5025 156.106 13.1052Z" fill="#171E1F"/>
<path d="M82.7119 13.1012C84.856 12.8726 87.1395 12.9919 89.3016 12.9656C89.301 13.0009 89.3001 13.0362 89.2975 13.0714C89.233 13.968 60.6049 42.0124 57.5259 44.4695C55.0516 44.5496 52.5425 44.4341 50.0655 44.4042C58.4551 37.4426 66.0594 29.104 73.8364 21.4814C76.6913 18.6832 79.5213 15.5128 82.7119 13.1012Z" fill="#171E1F"/>
</svg>
